<svg xmlns="http://www.w3.org/2000/svg" width="32" height="32" viewBox="0 0 32 32"><path d="M15.002 8.69l6.502-6.995 6.807 8.57 1.37.133L21.96.116l-10.99 2.71-6.798 7.19"/><path d="M27.445 18.734v-8.47l-5.98-7.598-6.157 6.626-10.57 1.293v8.145L0 22.67l2.813.038v7.84l12.307 1.336 7.522-.766v-7.73l4.434-.084v7.363l2.213-.226v-7.56H32l-4.555-4.146zm-21.443-6.27l3.033-.3v3.46l-3.033.19v-3.35zm3.132 14.682l-3.04-.176v-3.354l3.04.065v3.466zm0-5.623l-3.04.002V18.17l3.04-.112v3.465zm1.345-9.54l3.34-.333v3.635l-3.34.212v-3.515zm3.45 15.403l-3.35-.19v-3.52l3.35.07v3.64zm0-5.907l-3.35.004v-3.52l3.35-.124v3.64zm2.737-9.868l3.622.363v3.544l-3.623-.23v-3.678zm.122 6.08l3.612.144v3.54l-3.613-.01v-3.673zm3.788 9.43l-3.602.206v-3.666l3.602-.073v3.53zm.678-18.086c-.686-.09-1.247-1.006-1.247-2.043s.562-1.78 1.246-1.664c.674.114 1.215 1.026 1.215 2.037 0 1.01-.54 1.758-1.214 1.67zm1.115 3.176l3.228.322v3.35l-3.227-.205V12.21zm3.328 9.203l-3.218-.008v-3.463l3.218.126v3.345z"/></svg>